<?xml version="1.0" standalone="no"?>
<!DOCTYPE svg PUBLIC "-//W3C//DTD SVG 20010904//EN"
 "http://www.w3.org/TR/2001/REC-SVG-20010904/DTD/svg10.dtd">
<svg version="1.0" xmlns="http://www.w3.org/2000/svg"
 width="310.000000pt" height="310.000000pt" viewBox="0 0 310.000000 310.000000"
 preserveAspectRatio="xMidYMid meet">
<metadata>
Created by potrace 1.11, written by Peter Selinger 2001-2013
</metadata>
<g transform="translate(0.000000,310.000000) scale(0.100000,-0.100000)"
fill="#000000" stroke="none">
<path d="M1345 2325 l0 -335 57 0 58 0 1 33 c0 17 1 87 1 154 l0 122 40 41
c46 47 87 54 112 18 13 -18 16 -55 16 -195 l0 -173 60 0 60 0 -2 198 c-3 172
-5 201 -22 228 -49 81 -178 90 -250 18 -15 -15 -16 -9 -15 77 2 163 8 149 -59
149 l-57 0 0 -335z"/>
<path d="M1026 2478 c-22 -5 -54 -20 -72 -33 -34 -26 -45 -30 -43 -17 7 40 -1
47 -51 48 l-50 0 0 -336 0 -337 58 1 57 2 3 90 3 90 72 0 c149 0 236 90 239
249 2 101 -26 180 -77 217 -33 25 -93 36 -139 26z m58 -113 c35 -35 46 -148
21 -210 -21 -52 -57 -77 -110 -77 -26 0 -51 4 -56 9 -8 8 -13 97 -10 187 1 41
68 106 109 106 17 0 38 -7 46 -15z"/>
<path d="M2115 2483 c-53 -9 -67 -16 -102 -45 -21 -18 -35 -29 -32 -24 4 4 4
19 0 34 -7 24 -12 27 -54 28 -27 0 -47 -4 -48 -10 -4 -57 -3 -631 2 -644 4
-12 19 -17 57 -18 29 0 53 3 53 8 1 4 2 45 3 90 l1 82 70 1 c155 3 240 86 244
242 4 145 -45 231 -144 253 -16 3 -39 4 -50 3z m48 -135 c16 -21 21 -43 21
-100 1 -117 -41 -171 -129 -170 -26 1 -50 4 -53 7 -3 3 -6 52 -7 108 l-1 102
40 43 c34 37 44 43 74 40 24 -2 41 -11 55 -30z"/>
<path d="M27 1842 c-16 -3 -17 -45 -17 -563 l0 -559 149 0 c146 0 149 0 153
23 2 12 2 32 0 45 -3 21 -8 22 -98 22 -52 0 -95 3 -95 8 -1 4 -2 215 -3 469
-1 304 2 464 9 466 5 2 49 3 97 2 95 -2 97 0 90 60 l-4 30 -132 0 c-73 0 -140
-1 -149 -3z"/>
<path d="M2807 1842 c-13 -3 -17 -14 -17 -46 l0 -42 98 0 97 1 2 -473 1 -472
-99 0 -99 0 0 -45 0 -45 150 0 150 0 0 560 c0 308 -3 560 -7 561 -26 3 -262 3
-276 1z"/>
<path d="M996 1669 c-30 -24 -34 -63 -10 -97 22 -32 86 -31 108 3 21 31 20 58
-1 84 -26 31 -65 35 -97 10z"/>
<path d="M2660 1622 c-89 -29 -140 -89 -140 -167 0 -81 45 -127 184 -186 122
-52 156 -79 156 -124 0 -45 -31 -80 -84 -94 -47 -12 -181 -6 -222 9 -14 6 -30
10 -35 10 -13 0 -8 -90 5 -91 6 0 20 -3 31 -6 49 -12 222 -9 268 4 68 20 123
78 132 136 15 101 -31 163 -161 216 -123 51 -162 77 -172 114 -12 42 7 80 48
97 29 12 116 15 210 8 32 -3 34 -1 36 30 1 22 -5 36 -17 42 -31 17 -189 18
-239 2z"/>
<path d="M249 1628 c-5 -21 -8 -59 -13 -185 -9 -214 -17 -371 -21 -425 l-3
-48 44 0 c41 0 44 2 45 28 5 129 7 200 8 347 2 107 6 163 11 150 5 -11 33 -86
61 -168 l53 -147 33 3 c37 2 26 -20 113 222 18 50 36 93 39 97 3 4 7 -43 9
-105 2 -62 5 -159 7 -217 2 -58 4 -129 4 -157 l1 -53 46 0 45 0 -6 128 c-8
184 -16 347 -20 422 -2 36 -4 75 -4 88 -1 22 -4 23 -58 20 l-56 -3 -58 -155
c-32 -85 -59 -157 -59 -160 -1 -3 -16 38 -34 90 -19 52 -45 124 -58 160 l-23
65 -53 3 c-28 2 -52 2 -53 0z"/>
<path d="M1386 1622 c-3 -5 -5 -153 -5 -330 l0 -322 45 0 44 0 0 263 0 262 54
-120 c29 -66 83 -183 119 -260 l65 -140 61 -3 61 -3 0 330 0 330 -39 -1 c-22
0 -41 -5 -44 -12 -2 -6 -3 -118 -3 -249 1 -131 -1 -240 -4 -242 -3 -2 -19 26
-35 63 -16 37 -61 135 -100 217 -40 83 -80 167 -90 188 -17 36 -19 37 -71 37
-29 0 -55 -4 -58 -8z"/>
<path d="M1949 1629 c-1 -2 -2 -152 -3 -332 l-1 -328 110 2 c167 2 249 33 304
113 45 65 61 133 57 246 -2 82 -7 106 -30 153 -51 105 -119 138 -303 145 -73
2 -134 3 -134 1z m245 -90 c82 -23 126 -104 127 -233 1 -114 -36 -197 -103
-232 -43 -22 -178 -32 -179 -13 -4 37 -5 475 -2 482 6 11 112 8 157 -4z"/>
<path d="M865 1466 c-5 -14 -8 -38 -6 -53 1 -9 23 -13 75 -13 l73 0 0 -175 c0
-120 -3 -175 -11 -176 -6 -1 -42 -2 -81 -3 l-70 -1 -3 -37 -3 -38 206 0 206 0
-3 38 -3 37 -67 0 c-37 0 -69 3 -73 6 -3 3 -6 100 -6 215 l0 209 -116 1 c-74
0 -116 -3 -118 -10z"/>
</g>
</svg>
