<?xml version="1.0" encoding="utf-8"?>
<!-- Generator: Adobe Illustrator 16.0.0, SVG Export Plug-In . SVG Version: 6.00 Build 0)  -->
<!DOCTYPE svg PUBLIC "-//W3C//DTD SVG 1.1//EN" "http://www.w3.org/Graphics/SVG/1.1/DTD/svg11.dtd">
<svg version="1.1" id="Layer_1" xmlns="http://www.w3.org/2000/svg" xmlns:xlink="http://www.w3.org/1999/xlink" x="0px" y="0px"
	 width="1133.86px" height="1133.86px" viewBox="0 0 1133.86 1133.86" enable-background="new 0 0 1133.86 1133.86"
	 xml:space="preserve">
<path fill="#FB233B" d="M889.678,427.243L606.414,319.711L440.399,452.453l216.819,262.103L903.08,504.167
	C935.063,476.798,929.033,442.182,889.678,427.243z"/>
<g>
	<path fill="#EE1E70" d="M606.414,319.711L275.879,194.234c-19.753-7.499-36.127-5.775-46.576,3.033l211.097,255.186
		L606.414,319.711z"/>
</g>
<g>
	<path fill="#CE1B6D" d="M440.399,452.452L229.303,197.267c-10.368,8.74-14.902,24.454-11.102,45.072l62.301,337.964
		L440.399,452.452z"/>
</g>
<polygon fill="#AD1D4E" points="440.399,452.452 280.502,580.303 657.219,714.556 "/>
<g>
	<path fill="#951F4D" d="M411.357,924.944l245.861-210.389L280.502,580.303l58.83,319.136
		C346.964,940.836,379.375,952.313,411.357,924.944z"/>
</g>
<g>
	<g>
		<path fill="#FFFFFF" d="M515.191,634.142h35v-93.939c0-32.452,16.954-62.1,51.805-62.1c34.054,0,46.193,25.643,46.193,59.296
			v96.743h35V526.581c0-25.641-4.147-41.668-14.163-55.29c-10.819-15.225-29.371-24.039-54.613-24.039
			c-30.844,0-53.222,14.823-64.222,36.859v-130.97h-35V634.142z M412.155,383.146c0,15.224,12.42,27.646,27.646,27.646
			c16.027,0,28.448-12.422,28.448-27.646c0-15.627-12.421-28.447-28.448-28.447C424.575,354.698,412.155,367.519,412.155,383.146
			 M457.692,452.142h-35v225.486c0,16.026-6.381,25.24-18.402,25.24c-5.607,0-9.598-0.399-17.598-2.403v30.851
			c6,2.807,16.469,4.809,28.487,4.809c22.036,0,42.513-14.024,42.513-53.289V452.142z"/>
	</g>
</g>
</svg>
