<?xml version="1.0" encoding="utf-8"?>
<!-- Generator: Adobe Illustrator 16.0.0, SVG Export Plug-In . SVG Version: 6.00 Build 0)  -->
<!DOCTYPE svg PUBLIC "-//W3C//DTD SVG 1.1//EN" "http://www.w3.org/Graphics/SVG/1.1/DTD/svg11.dtd">
<svg version="1.1" id="Layer_1" xmlns="http://www.w3.org/2000/svg" xmlns:xlink="http://www.w3.org/1999/xlink" x="0px" y="0px"
	 width="1247.24px" height="561.258px" viewBox="0 711.496 1247.24 561.258" enable-background="new 0 711.496 1247.24 561.258"
	 xml:space="preserve">
<g>
	<defs>
		<rect id="SVGID_1_" y="711.496" width="1247.24" height="561.258"/>
	</defs>
	<clipPath id="SVGID_2_">
		<use xlink:href="#SVGID_1_"  overflow="visible"/>
	</clipPath>
	<g clip-path="url(#SVGID_2_)">
		<path fill-opacity="0" d="M0,711.496h1247.24v561.258H0V711.496z"/>
		<path fill-opacity="0" d="M88.584,831.987h405.697v236.288H88.584V831.987z"/>
		<path d="M220.86,1003.584c0,9.225-1.315,17.198-3.946,23.922c-2.598,6.723-6.22,12.326-10.865,16.809
			c-4.645,4.449-10.134,7.746-16.467,9.89s-13.22,3.216-20.658,3.216c-2.533,0-5.05-0.179-7.551-0.536
			c-2.501-0.324-4.775-0.747-6.821-1.267v39.269h-24.166V955.059h20.901l0.585,14.859c2.046-2.565,4.174-4.904,6.382-7.016
			s4.596-3.914,7.162-5.408c2.599-1.494,5.375-2.631,8.332-3.41c2.956-0.779,6.285-1.169,9.987-1.169
			c5.944,0,11.222,1.186,15.834,3.557c4.612,2.371,8.477,5.749,11.595,10.134c3.151,4.385,5.554,9.695,7.21,15.932
			C220.032,988.772,220.86,995.789,220.86,1003.584z M195.525,1004.559c0-5.555-0.406-10.264-1.218-14.129
			c-0.779-3.897-1.916-7.098-3.41-9.599c-1.461-2.533-3.264-4.368-5.408-5.505c-2.144-1.169-4.612-1.754-7.405-1.754
			c-4.092,0-8.006,1.656-11.742,4.97c-3.703,3.28-7.633,7.763-11.79,13.446v43.946c1.916,0.714,4.271,1.315,7.064,1.803
			c2.826,0.454,5.684,0.682,8.575,0.682c3.833,0,7.308-0.796,10.426-2.388c3.151-1.591,5.831-3.832,8.039-6.723
			c2.208-2.924,3.897-6.48,5.067-10.67C194.924,1014.448,195.525,1009.755,195.525,1004.559z M302.356,1055.617v-65.529
			c0-11.011-4.092-16.516-12.277-16.516c-4.093,0-8.006,1.656-11.742,4.97c-3.703,3.28-7.633,7.763-11.791,13.446v63.629h-24.165
			V915.79h24.165v34.445l-1.169,18.173c2.046-2.437,4.125-4.629,6.236-6.578c2.111-1.948,4.385-3.572,6.821-4.871
			c2.436-1.332,5.066-2.339,7.893-3.021c2.858-0.682,5.993-1.022,9.403-1.022c5.165,0,9.647,0.844,13.447,2.533
			c3.833,1.656,7.032,4.027,9.598,7.113c2.599,3.053,4.531,6.739,5.798,11.06c1.3,4.319,1.949,9.159,1.949,14.519v67.478H302.356z
			 M444.85,1003.584c0,9.225-1.315,17.198-3.946,23.922c-2.598,6.723-6.22,12.326-10.864,16.809
			c-4.645,4.449-10.134,7.746-16.468,9.89c-6.333,2.144-13.219,3.216-20.657,3.216c-2.533,0-5.051-0.179-7.552-0.536
			c-2.501-0.324-4.774-0.747-6.82-1.267v39.269h-24.166V955.059h20.901l0.585,14.859c2.046-2.565,4.174-4.904,6.382-7.016
			c2.209-2.111,4.597-3.914,7.162-5.408c2.599-1.494,5.376-2.631,8.331-3.41c2.956-0.779,6.285-1.169,9.988-1.169
			c5.943,0,11.222,1.186,15.834,3.557c4.611,2.371,8.477,5.749,11.595,10.134c3.151,4.385,5.555,9.695,7.211,15.932
			C444.021,988.772,444.85,995.789,444.85,1003.584z M419.516,1004.559c0-5.555-0.406-10.264-1.218-14.129
			c-0.78-3.897-1.917-7.098-3.411-9.599c-1.462-2.533-3.264-4.368-5.407-5.505c-2.145-1.169-4.612-1.754-7.406-1.754
			c-4.092,0-8.006,1.656-11.741,4.97c-3.703,3.28-7.633,7.763-11.79,13.446v43.946c1.916,0.714,4.271,1.315,7.064,1.803
			c2.825,0.454,5.684,0.682,8.574,0.682c3.833,0,7.309-0.796,10.426-2.388c3.151-1.591,5.831-3.832,8.039-6.723
			c2.209-2.924,3.898-6.48,5.067-10.67C418.915,1014.448,419.516,1009.755,419.516,1004.559z"/>
		<path fill-opacity="0" d="M390.183,803.34h883.184v293.543H390.183V803.34z"/>
		<path fill="#6AA84F" d="M524.163,1130.645H461.85V895.861h62.313v17.686H482.8v199.412h41.363V1130.645z"/>
		<path fill="#6AA84F" d="M1106.634,1130.645h-62.312v-17.686h41.07V913.547h-41.07v-17.686h62.312V1130.645z"/>
		<path fill-opacity="0" d="M351.907,842.582h806.68v182.47h-806.68V842.582z"/>
		<path fill="#6AA84F" d="M611.951,1078.186h-18.271l-2.729-85.602l-1.169-32.887l-6.382,19.099l-20.268,54.615h-12.96
			l-19.293-52.521l-6.432-21.193l-0.39,34.348l-2.436,84.141h-17.637l6.723-137.294h22.168l18.465,51.692l5.993,17.441l5.798-17.441
			l19.439-51.692h22.752L611.951,1078.186z M670.391,987.857h-31.182v-15.151h49.695v90.229h31.425v15.25H635.75v-15.25h34.641
			V987.857z M676.821,928.468c2.046,0,3.931,0.373,5.651,1.12c1.754,0.747,3.28,1.787,4.58,3.118
			c1.299,1.332,2.306,2.858,3.021,4.58c0.747,1.688,1.121,3.557,1.121,5.603c0,1.949-0.374,3.801-1.121,5.555
			c-0.715,1.754-1.722,3.297-3.021,4.628c-1.3,1.332-2.826,2.371-4.58,3.118c-1.721,0.715-3.605,1.072-5.651,1.072
			s-3.946-0.357-5.7-1.072c-1.722-0.747-3.231-1.786-4.531-3.118c-1.299-1.331-2.322-2.874-3.069-4.628
			c-0.715-1.754-1.071-3.605-1.071-5.555c0-2.046,0.356-3.914,1.071-5.603c0.747-1.722,1.771-3.248,3.069-4.58
			c1.3-1.331,2.81-2.371,4.531-3.118C672.875,928.841,674.775,928.468,676.821,928.468z M842.445,1078.186h-24.409l-39.999-85.602
			l-11.547-27.527v69.231v43.897h-17.441V940.892h24.019l38.148,81.07l13.787,31.425v-73.52v-38.976h17.442V1078.186z
			 M966.023,1008.028c0,6.561-0.52,12.862-1.559,18.903c-1.007,6.009-2.631,11.611-4.872,16.809
			c-2.241,5.164-5.148,9.874-8.721,14.129c-3.573,4.222-7.958,7.844-13.155,10.864c-5.164,3.021-11.189,5.359-18.075,7.016
			c-6.854,1.624-14.648,2.437-23.386,2.437h-29.427V940.892h35.42c21.437,0,37.417,5.521,47.94,16.564
			C960.745,968.467,966.023,985.324,966.023,1008.028z M946.341,1009.393c0-9.744-0.91-17.979-2.729-24.701
			c-1.818-6.724-4.58-12.148-8.282-16.273c-3.703-4.157-8.364-7.161-13.983-9.013c-5.586-1.852-12.163-2.777-19.731-2.777h-16.077
			v105.382h13.982C930.733,1062.01,946.341,1044.471,946.341,1009.393z M1078.981,1041.012c0,6.496-1.332,12.196-3.996,17.101
			c-2.663,4.904-6.382,8.997-11.156,12.277c-4.742,3.248-10.459,5.685-17.149,7.309c-6.691,1.591-14.064,2.387-22.119,2.387
			c-3.638,0-7.26-0.146-10.865-0.438c-3.604-0.26-7.08-0.601-10.426-1.022c-3.313-0.423-6.447-0.91-9.403-1.462
			c-2.923-0.585-5.586-1.186-7.99-1.803v-18.075c5.262,1.949,11.157,3.491,17.686,4.629c6.562,1.104,14.016,1.656,22.363,1.656
			c6.009,0,11.124-0.471,15.347-1.413c4.255-0.942,7.73-2.339,10.426-4.189c2.696-1.852,4.661-4.109,5.896-6.772
			s1.852-5.717,1.852-9.159c0-3.703-1.039-6.87-3.118-9.501c-2.047-2.631-4.759-4.97-8.137-7.016
			c-3.345-2.079-7.178-3.979-11.498-5.7c-4.319-1.722-8.721-3.492-13.203-5.311c-4.482-1.819-8.883-3.784-13.203-5.896
			c-4.287-2.144-8.12-4.66-11.498-7.552c-3.345-2.923-6.058-6.35-8.136-10.279c-2.047-3.931-3.07-8.591-3.07-13.983
			c0-4.677,0.975-9.289,2.924-13.836c1.981-4.58,5.034-8.624,9.159-12.132c4.125-3.54,9.419-6.398,15.883-8.574
			c6.496-2.177,14.227-3.265,23.191-3.265c2.306,0,4.807,0.114,7.503,0.341c2.695,0.195,5.424,0.487,8.185,0.877
			s5.489,0.828,8.185,1.315c2.729,0.487,5.246,1.007,7.552,1.56v16.809c-5.392-1.527-10.783-2.696-16.175-3.508
			c-5.392-0.812-10.621-1.219-15.688-1.219c-10.719,0-18.596,1.787-23.63,5.359c-5.034,3.573-7.552,8.364-7.552,14.373
			c0,3.735,1.023,6.935,3.069,9.598c2.079,2.663,4.791,5.051,8.137,7.162c3.378,2.078,7.21,3.979,11.498,5.7
			c4.319,1.722,8.721,3.491,13.203,5.311c4.482,1.818,8.884,3.816,13.203,5.992c4.32,2.144,8.152,4.71,11.498,7.698
			c3.378,2.988,6.09,6.479,8.136,10.475C1077.941,1030.797,1078.981,1035.522,1078.981,1041.012z"/>
	</g>
</g>
</svg>
