<?xml version="1.0" encoding="utf-8"?>
<!-- Generator: Adobe Illustrator 16.0.0, SVG Export Plug-In . SVG Version: 6.00 Build 0)  -->
<!DOCTYPE svg PUBLIC "-//W3C//DTD SVG 1.1//EN" "http://www.w3.org/Graphics/SVG/1.1/DTD/svg11.dtd">
<svg version="1.1" id="Layer_1" xmlns="http://www.w3.org/2000/svg" xmlns:xlink="http://www.w3.org/1999/xlink" x="0px" y="0px"
	 width="1247.24px" height="561.258px" viewBox="0 0 1247.24 561.258" enable-background="new 0 0 1247.24 561.258"
	 xml:space="preserve">
<g>
	<rect y="711.496" fill="none" width="1247.24" height="561.258"/>
	<g>
		<path fill-opacity="0" d="M21,702.624h1247.24v561.258H21V702.624z"/>
		<path fill-opacity="0" d="M88.584,831.987h405.697v236.288H88.584V831.987z"/>
		<path d="M213.86,244.584c0,9.225-1.315,17.198-3.946,23.922c-2.598,6.723-6.22,12.326-10.865,16.809
			c-4.645,4.449-10.134,7.746-16.467,9.891c-6.333,2.144-13.22,3.216-20.658,3.216c-2.533,0-5.05-0.179-7.551-0.536
			c-2.501-0.324-4.775-0.747-6.821-1.267v39.269h-24.166V196.059h20.901l0.585,14.859c2.046-2.564,4.174-4.904,6.382-7.016
			c2.208-2.112,4.596-3.914,7.162-5.408c2.599-1.494,5.375-2.631,8.332-3.41c2.956-0.779,6.285-1.169,9.987-1.169
			c5.944,0,11.222,1.186,15.834,3.557c4.612,2.371,8.477,5.749,11.595,10.135c3.151,4.385,5.554,9.694,7.21,15.932
			C213.032,229.771,213.86,236.789,213.86,244.584z M188.525,245.559c0-5.555-0.406-10.264-1.218-14.129
			c-0.779-3.896-1.916-7.098-3.41-9.599c-1.461-2.533-3.264-4.368-5.408-5.505c-2.144-1.169-4.612-1.754-7.405-1.754
			c-4.092,0-8.006,1.655-11.742,4.97c-3.703,3.28-7.633,7.763-11.79,13.446v43.945c1.916,0.715,4.271,1.315,7.064,1.804
			c2.826,0.454,5.684,0.682,8.575,0.682c3.833,0,7.308-0.796,10.426-2.388c3.151-1.591,5.831-3.832,8.039-6.724
			c2.208-2.924,3.897-6.479,5.067-10.67C187.924,255.448,188.525,250.755,188.525,245.559z M295.356,296.617v-65.529
			c0-11.011-4.092-16.516-12.277-16.516c-4.093,0-8.006,1.655-11.742,4.97c-3.703,3.28-7.633,7.763-11.791,13.446v63.629h-24.165
			V156.79h24.165v34.445l-1.169,18.173c2.046-2.438,4.125-4.629,6.236-6.578c2.111-1.948,4.385-3.572,6.821-4.871
			c2.436-1.332,5.066-2.339,7.893-3.021c2.858-0.682,5.993-1.021,9.403-1.021c5.165,0,9.647,0.844,13.447,2.533
			c3.833,1.656,7.032,4.026,9.599,7.113c2.599,3.053,4.53,6.738,5.798,11.06c1.3,4.319,1.949,9.159,1.949,14.519v67.479h-24.167
			V296.617z M437.85,244.584c0,9.225-1.314,17.198-3.945,23.922c-2.599,6.723-6.221,12.326-10.864,16.809
			c-4.645,4.449-10.134,7.746-16.468,9.891c-6.333,2.144-13.22,3.216-20.657,3.216c-2.533,0-5.051-0.179-7.552-0.536
			c-2.501-0.324-4.774-0.747-6.82-1.267v39.269h-24.166V196.059h20.901l0.585,14.859c2.046-2.564,4.174-4.904,6.382-7.016
			c2.209-2.111,4.597-3.914,7.162-5.408c2.599-1.494,5.376-2.631,8.331-3.41c2.956-0.779,6.284-1.169,9.987-1.169
			c5.943,0,11.223,1.186,15.834,3.557s8.478,5.749,11.596,10.135c3.15,4.385,5.555,9.694,7.211,15.932
			C437.021,229.771,437.85,236.789,437.85,244.584z M412.516,245.559c0-5.555-0.405-10.264-1.218-14.129
			c-0.78-3.896-1.917-7.098-3.411-9.599c-1.462-2.533-3.264-4.368-5.407-5.505c-2.145-1.169-4.611-1.754-7.405-1.754
			c-4.093,0-8.006,1.655-11.741,4.97c-3.703,3.28-7.633,7.763-11.79,13.446v43.945c1.916,0.715,4.271,1.315,7.063,1.804
			c2.825,0.454,5.685,0.682,8.574,0.682c3.833,0,7.31-0.796,10.426-2.388c3.151-1.591,5.832-3.832,8.039-6.724
			c2.209-2.924,3.898-6.479,5.067-10.67C411.915,255.448,412.516,250.755,412.516,245.559z"/>
		<path fill-opacity="0" d="M390.183,803.34h883.185v293.543H390.183V803.34z"/>
		<path fill="#6AA84F" d="M527.163,371.864H464.85V137.081h62.313v17.686H485.8v199.412h41.363V371.864L527.163,371.864z"/>
		<path fill="#6AA84F" d="M1023.478,377.645h-62.312v-17.686h41.069V160.547h-41.069v-17.686h62.312V377.645z"/>
		<path fill-opacity="0" d="M344.907,189.394h806.68v182.469h-806.68V189.394L344.907,189.394z"/>
	</g>
	<text transform="matrix(1 0 0 1 545.1201 344.0518)" font-family="'Digital-7Mono'" font-size="272">404</text>
</g>
</svg>
